/* XPM */
static char *TestDisplay[] = {
/* columns rows colors chars-per-pixel */
"64 64 205 2 ",
"   c #000000",
".  c #0D0E0F",
"X  c #1B1B1B",
"o  c #131414",
"O  c #0F1214",
"+  c #1F2428",
"@  c #2E343B",
"#  c #343536",
"$  c #3F3F3F",
"%  c #2A2C2D",
"&  c #3D4247",
"*  c #3A5E79",
"=  c #3B637B",
"-  c #474848",
";  c #535353",
":  c #5A5B5C",
">  c #575858",
",  c #484E54",
"<  c #5D6368",
"1  c #496477",
"2  c #516776",
"3  c #566B7A",
"4  c #656565",
"5  c #6B6B6C",
"6  c #65686B",
"7  c #696F74",
"8  c #656C73",
"9  c #6C7177",
"0  c #6B757D",
"q  c #737474",
"w  c #7B7C7C",
"e  c #767778",
"r  c #165E98",
"t  c #275D87",
"y  c #1A6598",
"u  c #3A6981",
"i  c #3C7788",
"p  c #267795",
"a  c #216993",
"s  c #095FA7",
"d  c #015FB1",
"f  c #1776A4",
"g  c #0869B4",
"h  c #0279BC",
"j  c #1872BB",
"k  c #0D6AAD",
"l  c #237ABF",
"z  c #5E7482",
"x  c #4C7282",
"c  c #627584",
"v  c #6D7E8D",
"b  c #697985",
"n  c #7C7F82",
"m  c #707A83",
"M  c #087FC1",
"N  c #1B7FC1",
"B  c #27859B",
"V  c #33808F",
"C  c #1A9AB3",
"Z  c #0E8AB7",
"A  c #1AB3BE",
"S  c #21A2AE",
"D  c #2598A5",
"F  c #798189",
"G  c #6F8491",
"H  c #748493",
"J  c #798896",
"K  c #7C8C9A",
"L  c #7C8791",
"P  c #6F808F",
"I  c #0184C3",
"U  c #018AC7",
"Y  c #028DC8",
"T  c #0B84C3",
"R  c #178CC7",
"E  c #0194CC",
"W  c #019ACE",
"Q  c #0A98CA",
"!  c #1194CC",
"~  c #1D9ACF",
"^  c #1797CD",
"/  c #009ED0",
"(  c #0E9CD0",
")  c #1E9DD0",
"_  c #2F9BCF",
"`  c #2B94CC",
"'  c #2F9ED1",
"]  c #3187C5",
"[  c #00A4D3",
"{  c #00AAD6",
"}  c #00AFD8",
"|  c #00B3DA",
" . c #00BADE",
".. c #0ABCD3",
"X. c #18BBC4",
"o. c #2FA0D1",
"O. c #00BFE0",
"+. c #4698CD",
"@. c #439ED0",
"#. c #589CCF",
"$. c #619CCF",
"%. c #43A2D3",
"&. c #5BA5D4",
"*. c #5BAAD6",
"=. c #75B3DA",
"-. c #74ACD7",
";. c #11C7D1",
":. c #00C4E2",
">. c #01CBE5",
",. c #0DC5E3",
"<. c #17C8E4",
"1. c #16D4EA",
"2. c #18D7EC",
"3. c #07D7E9",
"4. c #2FDCEE",
"5. c #2FD3EA",
"6. c #2DD1E8",
"7. c #0CE8F4",
"8. c #2FE2F1",
"9. c #25EFF7",
"0. c #37F4FA",
"q. c #49DBEE",
"w. c #49E4F2",
"e. c #47E8F4",
"r. c #4DEFF7",
"t. c #62ECF6",
"y. c #62E6F3",
"u. c #62F1F8",
"i. c #7BF4FA",
"p. c #71EEF6",
"a. c #838485",
"s. c #8B8C8D",
"d. c #868889",
"f. c #808F9C",
"g. c #848D95",
"h. c #8E9193",
"j. c #83919F",
"k. c #939495",
"l. c #9B9B9C",
"z. c #959799",
"x. c #8694A1",
"c. c #8997A3",
"v. c #8D9AA6",
"b. c #8F9DA8",
"n. c #919EA9",
"m. c #969DA4",
"M. c #95A1AC",
"N. c #99A4AE",
"B. c #9AA6B1",
"V. c #9DA9B3",
"C. c #A3A4A4",
"Z. c #A3A6A9",
"A. c #ACACAD",
"S. c #A5A9AC",
"D. c #A0ABB5",
"F. c #A4AEB8",
"G. c #ABAFB2",
"H. c #A7B1BA",
"J. c #AAB4BD",
"K. c #AFB5B9",
"L. c #B3B4B5",
"P. c #BBBCBD",
"I. c #B5B8BA",
"U. c #8DBADD",
"Y. c #AEB8C0",
"T. c #B3BCC4",
"R. c #BCBFC2",
"E. c #94BFE0",
"W. c #BEC1C2",
"Q. c #BBC3CB",
"!. c #93C1E1",
"~. c #9AC0E0",
"^. c #B4D3EA",
"/. c #BCD5EA",
"(. c #A5C8E4",
"). c #C4C4C5",
"_. c #C2C7CC",
"`. c #C3C8CD",
"'. c #CBCBCC",
"]. c #C5CCD2",
"[. c #CACFD3",
"{. c #CDD1D5",
"}. c #CED4D9",
"|. c #D2D3D4",
" X c #D2D7DA",
".X c #D4D9DD",
"XX c #DDDDDD",
"oX c #D7DCE0",
"OX c #DADEE2",
"+X c #C4DAED",
"@X c #DEE2E5",
"#X c #D7E6F3",
"$X c #D8E6F3",
"%X c #CFE1F0",
"&X c #E1E4E6",
"*X c #E3E7E9",
"=X c #E6E9EB",
"-X c #EAECEE",
";X c #ECEFF0",
":X c #EEF0F2",
">X c #F3F5F6",
",X c #F6F7F8",
"<X c #F7F8F9",
"1X c #FEFEFE",
"2X c None",
/* pixels */
"2X2X2X2X2X2X2X2X2X2X2X2X2X                                                                            2X2X2X2X2X2X2X2X2X2X2X2X2X",
"2X2X2X2X2X2X2X2X2X2X                                                                                        2X2X2X2X2X2X2X2X2X2X",
"2X2X2X2X2X2X2X2X2X        X $ $ $ $ $ - $ - $ $ $ - $ $ $ $ $ & $ - $ $ $ - $ $ $ $ $ & $ - $ $ $ - X         2X2X2X2X2X2X2X2X2X",
"2X2X2X2X2X2X2X2X      # ).1X1X1X1X1X1X1X1X1X1X1X1X1X1X1X1X1X1X1X1X1X1X1X1X1X1X1X1X1X1X1X1X1X1X1X1X1X1X).#       2X2X2X2X2X2X2X2X",
"2X2X2X2X2X2X2X2X    ; <X1X1X1X1X1X1X1X1X1X1X1X1X1X1X1X1X1X1X1X1X1X1X1X1X1X1X1X1X1X1X1X1X1X1X1X1X1X1X1X1X<X;     2X2X2X2X2X2X2X2X",
"2X2X2X2X2X2X2X    X >X1X1X:X=X=X=X=X=X&X=X*X=X*X*X&X*X=X*X=X=X=X=X&X=X=X&X&X*X=X*X=X*X*X=X*X*X-X*X&X:X1X1X>XX     2X2X2X2X2X2X2X",
"2X2X2X2X2X2X2X    s.1X1X=X@X@X@X@X@X@X@X@X@X@X@X@X@X@X@X@X@X@X@X@X@X@X@X@X@X@X@X@X@X@X@X@X@X@X@X@X@X@X-X1X1Xs.    2X2X2X2X2X2X2X",
"2X2X2X2X2X2X2X    '.1X<X&X&X&X&X&X&X&X&X&X&X&X&X&X&X&X&X&X&X&X&X&X&X&X&X&X&X&X&X*X&X&X&X&X&X@X*X&X&X&X&X<X1X'.    2X2X2X2X2X2X2X",
"2X2X2X2X2X2X2X    XX1X,X&X=X*X*X*X*X*X*X*X*X*X*X*X*X*X*X*X*X*X*X*X*X*X*X*X*X*X*X*X*X*X*X*X*X*X@X*X*X*X*X,X1XXX    2X2X2X2X2X2X2X",
"2X2X2X2X2X2X2X    XX1X,X=X=X=X=X=X=X=X=X=X=X=X=X=X=X*X=X*X=X=X=X=X=X=X=X=X=X=X=X=X=X=X=X=X-X=X=X=X=X=X=X,X1XXX    2X2X2X2X2X2X2X",
"2X2X2X2X2X2X2X    XX1X<X-X-X-X=XS.z.a.s.k.z.h.h.l.s.W.d.a.z.R.w l.s.z.s.q -Xz.k.h.n F a.d.d.k.&X-X-X-X=X,X1XXX    2X2X2X2X2X2X2X",
"2X2X2X2X2X2X2X    XX1X<X-X-X;X-XL.R.).).'.P.P.P.W.'. XR.'.W.@XR.{.P.'._.P.{.W.W.'.P.W.P.P.P.).;X-X-X;X-X<X1XXX    2X2X2X2X2X2X2X",
"2X2X2X2X2X2X2X    &X1X<X:X-X:X;X;X;X;X:X;X:X;X;X:X;X;X;XOX|.[.'.{. XXX&X-X:X-X;X;X;X;X;X;X;X;X;X:X;X;X;X<X1XXX    2X2X2X2X2X2X2X",
"2X2X2X2X2X2X2X    XX1X<X:X:X:X-Xd.d.n d.h.n h.L.k.5 a.6 - e n s.w k.d.k.e A.k.5 L.P.A.h.k.n C.C.:X:X:X:X<X1X&X    2X2X2X2X2X2X2X",
"2X2X2X2X2X2X2X    XX1X<X:X>X:X:XR.R.C.'.).P.W.q e n h.K.].}.oXOXOX@X@XXXR._.G.L.).).|.'.).).P.'.:X>X:X:X1X1XXX    2X2X2X2X2X2X2X",
"2X2X2X2X2X2X2X    XX1X<X>X:X>X:X-X>X>X>X>X).s.s.G.`.{.OX&X*X=X=X=X=X=X=X&X&X=X&X@X&X:X>X:X>X>X:X>X:X>X:X<X1XXX    2X2X2X2X2X2X2X",
"2X2X2X2X2X2X2X    &X1X1X>X>X>X-Xe l.l.e q > k.Q.}.OX*X=X*X*X&X&X*X*X*X&X*X*X*X*X-X).a.l.z.P.>X>X>X>X>X>X1X1XXX    2X2X2X2X2X2X2X",
"2X2X2X2X2X2X2X    XX1X<X>X,X>X>X).W.P.5 6 N.Q.OX&X*XOX*XoX].Y.Y.Y.Y.R. X&X&X&X&X&X*X&XL.|.{.>X>X>X>X>X>X<X1XXX    2X2X2X2X2X2X2X",
"2X2X2X2X2X2X2X    XX1X1X,X>X,X,X,X-Xs.a.H.].@X@XOXOXR.N.v c z 2 1 2 3 c J F. XOX@X@X&X=X-X>X>X<X>X>X>X>X<X1XXX    2X2X2X2X2X2X2X",
"2X2X2X2X2X2X2X    XX1X<X,X,X,X,Xn : : G.].OXOXOX].n.c * t s s d d s s t t 2 v S..XoXOX@X=X-X>X<X<X<X<X<X1X1XXX    2X2X2X2X2X2X2X",
"2X2X2X2X2X2X2X    XX1X1X<X<X<X<Xn : B.Q.oX.X.XY.H * r g +.E./.#X$X+XE.$.g s t 2 K ]. XoXOX-X-X:X<X<X<X<X1X1X&X    2X2X2X2X2X2X2X",
"2X2X2X2X2X2X2X    XX1X1X<X<X<X|.9 m.T.oX.X XF.c t g $.+X$X#X#X$X$X$X$X%X#X-.j r 1 v Q. X X@X-X-X>X<X<X<X1X1XXX    2X2X2X2X2X2X2X",
"2X2X2X2X2X2X2X    XX1X1X1X<X,Xa.4 F.}.}.}.K.z r j E.^.^.^.^.^.^.^.^.^.^.^.^.(.l s * v ].}.}.@X-X:X<X<X<X1X1XXX    2X2X2X2X2X2X2X",
"2X2X2X2X2X2X2X    XX1X1X<X1X).7 v.Q.}.}.R.v r l U.E.E.!.!.E.!.!.!.E.E.E.!.~.~.E.] s 1 J {.{.}.$X=X:X<X1X1X1XXX    2X2X2X2X2X2X2X",
"2X2X2X2X2X2X2X    XX1X1X<X1Xa.F D.[.{.].n.t h -.=.=.=.=.=.=.=.=.=.=.=.=.=.=.=.=.-.N y 3 N.[.}.oX*X*X,X<X1X1XXX    2X2X2X2X2X2X2X",
"2X2X2X2X2X2X2X    XX1X1X1XXX5 z.T.].].T.2 g +.&.&.&.&.&.*.*.*.*.*.*.*.*.*.*.*.&.&.#.g t v Q.].].*XXX:X1X1X1XXX    2X2X2X2X2X2X2X",
"2X2X2X2X2X2X2X    XX1X1X1XL.9 n.].Q.].b.y j _ +.@.%.@.%.%.%.%.%.%.%.%.%.@.@.@.@.@.+.] k 1 M.Q.}.XXXX&X1X1X1XXX    2X2X2X2X2X2X2X",
"2X2X2X2X2X2X2X    XX1X1X1Xs.F B.Q.].Q.c g h N R ` ` _ _ o.o.o.o.o.o.o.o.' _ _ _ ` ` ] h = H Q.Q. XXX X<X1X1XXX    2X2X2X2X2X2X2X",
"2X2X2X2X2X2X2X    XX1X1X<Xq L F.Q.Q.Q.u h h M I I I Y ! ! ^ ) ) ) ) ) ` ) ` ~ ^ R ` R M y z T.Q._.@X|.>X1X1XXX    2X2X2X2X2X2X2X",
"2X2X2X2X2X2X2X    XX1X1X;X4 g.J.Q.Q.J.y M M I I U U Y E E E E W / ( ( ( ( ! ! ! ! R R T k z V.R.R.OX'.=X1X1XXX    2X2X2X2X2X2X2X",
"2X2X2X2X2X2X2X    &X1X1XXX4 j.Y.T.Q.B.f M I U Y E E E W / W / / / / / W W ( W E Q U U I h 3 M.T.T.oX'.&X1X1XXX    2X2X2X2X2X2X2X",
"2X2X2X2X2X2X2X    XX1X1XXX4 g.J.T.T.M.f I U Y E E W / / [ [ [ [ { [ [ / / / W W E E Y U I 2 n.Y.T. X).XX1X1X&X    2X2X2X2X2X2X2X",
"2X2X2X2X2X2X2X    XX1X<XXX4 g.H.J.Q.M.f U E E W W [ [ [ [ [ { { { { { [ [ [ / / W W Y Y I 2 n.Y.Y.}.W.XX1X1XXX    2X2X2X2X2X2X2X",
"2X2X2X2X2X2X2X    XX1X1X&X6 J D.J.T.H.f Y E W W [ [ [ { | | | | | | } } } { { [ / W E E Z 3 n.Y.Y.}.I.XX1X1XXX    2X2X2X2X2X2X2X",
"2X2X2X2X2X2X2X    XX1X1X,X4 H N.H.J.`.p E W [ [ [ } | | |  .|  .O.O.| } | { } { [ [ W W Z c B.F.J. XA.&X1X<XXX    2X2X2X2X2X2X2X",
"2X2X2X2X2X2X2X    XX1X1X1Xe b v.F.F..Xu W W [ [ { | |  . . . .:.O.O.O.O.O.O.| } { [ / / p H V.F.K.{.C.-X1X1XXX    2X2X2X2X2X2X2X",
"2X2X2X2X2X2X2X    XX<X1X1Xk.9 g.V.F.Q.K Z [ { | |  . .:.:.:.:.>.>.>.:.O.O.O.O.} } { [ / u v.F.V.T.R.C.1X1X1XXX    2X2X2X2X2X2X2X",
"2X2X2X2X2X2X2X    XX<X1X1XW.5 H N.V.H.`.p [ { | |  .:.:.>.>.>.>.>.>.>.:.O.O.O.O.| } { Z c M.V.V._.G.I.1X1X<XXX    2X2X2X2X2X2X2X",
"2X2X2X2X2X2X2X    XX1X1X1X>X4 m c.B.B.{.H Q { | ,.<.<.<.1.1.2.2.2.2.2.2.6.<.O.<.| } { u c.B.B.V.].l. X1X1X1X X    2X2X2X2X2X2X2X",
"2X2X2X2X2X2X2X    XX<X<X1X1Xl.7 H M.N.V.[.i | ..<.6.5.4.4.8.8.8.8.8.4.4.5.5.5.5.O.O.B H M.M.M.T.G.z.1X1X1X<XXX    2X2X2X2X2X2X2X",
"2X2X2X2X2X2X2X    XX<X<X1X1XXX4 3 x.M.n.T.J.p :.,.q.q.q.w.w.e.e.e.e.e.e.w.q.q.6. .C c M.n.M.B.R.k.).1X1X1X<XXX    2X2X2X2X2X2X2X",
"2X2X2X2X2X2X2X    XX<X1X1X1X1Xk.& H v.n.n.].D.B :.1.y.y.t.t.u.u.u.u.t.t.y.y.4.>.C z M.n.n.n.Y.Z.k.<X1X1X1X,XXX    2X2X2X2X2X2X2X",
"2X2X2X2X2X2X2X    XX,X1X1X1X1X&X4 0 H v.v.v._.I.i ..3.0.p.i.i.i.i.i.i.i.r.2.>.B v V.b.v.v.D.G.a.|.1X1X1X<X,X X    2X2X2X2X2X2X2X",
"2X2X2X2X2X2X2X     X,X1X&Xd.4 5 5 M.f.H c.c.c.J.{.H B :.7.7.0.r.r.0.9.7.3.C x b.V.c.c.c.N.K.d.A.1X1X1X1X1X,XXX    2X2X2X2X2X2X2X",
"2X2X2X2X2X2X2X    XX,X|.5 7 J g.n.T. Xc.H x.x.x.n.Q.Q.K x D A ;.;.X.S V z b.Y.b.x.x.x.M.H.a.k.<X1X1X1X1X<X<XXX    2X2X2X2X2X2X2X",
"2X2X2X2X2X2X2X     X|.5 9 j.F.Q.}.oX=X].K H K j.x.c.M.Q.]._.H.M.n.B.Y.Q.Y.b.x.x.x.x.M.V.a.k.>X1X1X1X1X1X<X,X|.    2X2X2X2X2X2X2X",
"2X2X2X2X2X2X2X    I.8 7 x.D.Q. X&X*X}.V.v 0 P J K K K K K K v.M.M.v.K K K K K K x.B.m.e k.>X1X1X1X1X1X1X<X>X X    2X2X2X2X2X2X2X",
"2X2X2X2X2X2X2X    > 7 x.V.R. X*X&X].F.b & - - b H K K K K K J K K K K K K K K M.n.6 $ 4 s.C.1X1X1X1X1X1X,X>X X    2X2X2X2X2X2X2X",
"2X2X2X2X2X2X      < x.V.Q. X*X@X[.J.n.0 ; W.a.> 5 m H J K K J K J K K K x.b.z.F 4 e P.XX[.|.1X1X1X1X1X1X,X>X|.    2X2X2X2X2X2X2X",
"2X2X2X2X2X      @ x.V.Q. X=X*X].J.n.K b 4 1X1XXXk.4 6 9 m F H K K g.f.d.n q 6 d.).<X1X1X1X1X1X1X1X1X1X1X>X>X|.    2X2X2X2X2X2X2X",
"2X2X2X2X      @ x.V.Q. X*X@X].Y.n.K v , : k.'.k.l.a.: , $ 4 $ # $ , $ - > : w A.'.a.s.).|.1X1X1X1X1X1X1X>X:X{.    2X2X2X2X2X2X2X",
"2X2X2X      @ x.V.Q.}.*X@X].Y.n.K P 6 > A.|.XX|.l.'.'.).).XX).).).).'.'.&X X'.XX:X'.'.XX&X1X1X1X1X1X1X1X,X-X{.    2X2X2X2X2X2X2X",
"2X2X      @ x.V.Q. X*X@X].Y.n.J v 8 5 XX1X1X1X1X1X1X1X1X1X1X1X1X1X1X1X1X1X1X1X1X1X1X1X1X1X1X1X1X1X1X1X1X>X-X{.    2X2X2X2X2X2X2X",
"2X      @ x.V.Q. X*X&X].Y.n.K v , - n k.P.l.w k.k.C.l.).s.Z.k.k.l.l.P.1X1X1X1X1X1X1X1X1X1X1X1X1X1X1X1X1X:X-X'.    2X2X2X2X2X2X2X",
"2X    @ j.D.Q. X*X@X].J.n.K P 7 ; C.'.).&XXX).XX'.).XX-X|.).'.XX|.'.XX1X1X1X1X1X1X1X1X1X1X1X1X1X1X1X1X1X:X=X'.    2X2X2X2X2X2X2X",
"    o j.V.Q. X&X*X].Y.n.K v 7 7 XX1X1X1X1X1X1X1X1X1X1X1X1X1X1X1X1X1X1X1X1X1X1X1X1X1X1X1X1X1X1X1X1X1X1X1X:X*X`.    2X2X2X2X2X2X2X",
"    % D.Q. X*X@X].Y.n.K v 7 7 XX1X1X1X1X1X1X1X1X1X1X1X1X1X1X1X1X1X1X1X1X1X1X1X1X1X1X1X1X1X1X1X1X1X1X1X1X=X&XI.    2X2X2X2X2X2X2X",
"      m.}.*X&X].Y.n.K v 7 7 XX1X1X1X1X1X1X1X1X1X1X1X1X1X1X1X1X1X1X1X1X1X1X1X1X1X1X1X1X1X1X1X1X1X1X1X1X,X@X@Xe     2X2X2X2X2X2X2X",
"2X    o R.&X].J.b.K v < : '.,X,X>X,X>X,X,X>X>X,X,X,X>X>X,X,X>X>X,X,X,X,X>X,X,X,X>X<X>X,X,X>X>X,X,X,X-X@X@X}.X     2X2X2X2X2X2X2X",
"2X2X    o D.Y.M.K v & < W.OXOX.XOXOX.XOXOXOXOX.X.XOXOXOX.XOXOXOXOX.X.XOXOXOX.XOXOX.XOXOXOXOXOX.X.XOXOX.X}.-     2X2X2X2X2X2X2X2X",
"2X2X2X    . F K v @   % S. XoX}..X.X.X.XoX X.X X X.X XOX.X.X.X.X X.X.X X X X XoXoX XoX X X XoX X X.X XS.%       2X2X2X2X2X2X2X2X",
"2X2X2X2X      + O         X # @ # # # # @ # # # # # # # # # # # # # # # # # # @ # # @ # # # # # # # X         2X2X2X2X2X2X2X2X2X",
"2X2X2X2X2X                                                                                                  2X2X2X2X2X2X2X2X2X2X",
"2X2X2X2X2X2X      2X2X2X2X                                                                            2X2X2X2X2X2X2X2X2X2X2X2X2X"
};
